Coordinates
version=1
nRows=13
nColumns=36
inDegrees=yes

Units are S.I. units (second, meters, Newtons, ...)
If the header above contains a line with 'inDegrees', this indicates whether rotational values are in degrees (yes) or radians (no).

endheader
time	pelvis_tilt	pelvis_list	pelvis_rotation	pelvis_tx	pelvis_ty	pelvis_tz	hip_flexion_r	hip_adduction_r	hip_rotation_r	knee_angle_r	knee_angle_r_beta	ankle_angle_r	subtalar_angle_r	mtp_angle_r	hip_flexion_l	hip_adduction_l	hip_rotation_l	knee_angle_l	knee_angle_l_beta	ankle_angle_l	subtalar_angle_l	mtp_angle_l	lumbar_extension	lumbar_bending	lumbar_rotation	arm_flex_r	arm_add_r	arm_rot_r	elbow_flex_r	pro_sup_r	arm_flex_l	arm_add_l	arm_rot_l	elbow_flex_l	pro_sup_l
      6.30000000	    -34.59935541	      0.27177487	     -3.78924553	      0.48134375	      0.47504404	      0.05004621	    115.28257657	    -19.70047518	      0.36690242	    116.67250073	      2.03631928	     36.13612591	    -14.35688061	     -7.49999987	    119.61160431	    -20.74824722	     10.06492470	    113.55640307	      1.98193312	     29.48633688	    -11.83726692	     -7.49999987	    -28.24276848	      2.24139247	     11.45096140	     83.01160216	    -18.31775687	     67.90987293	    133.68510137	     78.52400362	     86.51562714	      1.55629238	     69.45721630	    120.09356836	     93.36163242
      6.31666670	    -34.53060858	      0.13776729	     -3.55676067	      0.48966749	      0.47833739	      0.05376514	    115.35674268	    -19.71173184	      0.40860322	    116.72328103	      2.03720557	     35.90725567	    -14.25050902	     -7.49999987	    119.62225150	    -20.34398190	     10.11631265	    113.48499251	      1.98068677	     29.33795130	    -11.72576086	     -7.49999987	    -28.16426262	      2.37536699	     11.27102756	     81.64660774	    -17.39478585	     68.45037620	    133.74854689	     76.99781331	     85.27907242	      0.97200975	     69.77609424	    120.95602490	     90.02429362
      6.33333330	    -34.74874493	      0.04713435	     -3.37131958	      0.48997295	      0.47966600	      0.05320848	    115.44531531	    -19.62317879	      0.41791721	    116.57221740	      2.03456901	     35.67961434	    -14.42623875	     -7.49999987	    119.64298313	    -20.08861402	     10.05280616	    113.27258374	      1.97697954	     29.50524863	    -11.44759009	     -7.49999987	    -27.56826545	      2.58596985	     11.20028662	     79.64721649	    -17.40252453	     68.86107257	    133.44118163	     71.18268593	     83.76821346	      0.56774749	     70.54385461	    121.27550249	     81.16858897
      6.35000000	    -34.90247163	     -0.20644277	     -3.22358823	      0.47479224	      0.48148951	      0.04446248	    115.23069309	    -19.65219334	      0.14087056	    116.01905151	      2.02491444	     35.32763502	    -14.45894640	     -7.49999987	    119.60542538	    -19.69668336	      9.99688717	    112.88114460	      1.97014764	     29.10435892	    -11.71014554	     -7.49999987	    -27.61930716	      2.76729076	     11.63967353	     81.19372710	    -19.21326531	     65.68917172	    134.37408126	     82.21499417	     85.31766498	      2.26875972	     68.63625164	    120.44467606	     98.34363039
      6.36666670	    -35.28867225	     -0.35933329	     -3.07918814	      0.48168531	      0.48517504	      0.04228565	    115.11667927	    -19.73359693	     -0.13455467	    115.32848896	      2.01286185	     35.08464177	    -14.46442191	     -7.49999987	    119.57453517	    -19.28554716	      9.79686469	    112.36309014	      1.96110588	     28.86392801	    -11.85232336	     -7.49999987	    -26.97444369	      3.17369630	     11.33104803	     81.01824232	    -19.08373294	     64.85111779	    135.14391834	     82.22955621	     85.44250820	      2.56540712	     68.72983690	    120.72979902	     98.28051408
      6.38333330	    -36.00763936	     -0.57517330	     -3.06160194	      0.49654703	      0.49861169	      0.05177278	    114.75126170	    -19.56430073	     -0.57861077	    114.34466312	      1.99569085	     34.91902469	    -14.44234244	     -7.49999987	    119.51853321	    -19.06621705	      9.75870325	    111.57296625	      1.94731562	     29.07954932	    -11.71652188	     -7.49999987	    -25.94817708	      3.36969899	     11.67998966	     78.59445241	    -17.81191764	     66.61697800	    135.35485451	     81.89601561	     83.76444325	      2.16127244	     69.12138181	    120.29590671	     96.93375121
      6.40000000	    -37.00114157	     -0.96594324	     -3.33411046	      0.52548623	      0.50769108	      0.04848840	    113.95049270	    -19.18891147	     -1.28416291	    113.11617955	      1.97424977	     34.90466847	    -14.68489517	     -7.49999987	    119.31268664	    -19.10297925	     10.07243924	    110.71208808	      1.93229046	     30.00515447	    -11.34396636	     -7.49999987	    -24.18060006	      3.76680316	     11.99609063	     73.90118116	    -17.68033550	     72.37428595	    136.62083514	     85.79689240	     78.51523421	      2.71838617	     69.22690173	    120.34546647	    101.83849073
      6.41666670	    -37.90499160	     -1.28423103	     -3.71300974	      0.52412503	      0.51157274	      0.04860068	    112.85839838	    -18.63235575	     -1.91805024	    111.69382693	      1.94942503	     34.86532318	    -15.18206385	     -7.49999987	    118.76669385	    -19.38603875	     10.28762401	    109.74667198	      1.91544077	     30.98079281	    -10.96735961	     -7.49999987	    -22.21370024	      4.09470286	     12.59888772	     71.90341365	    -18.11581495	     75.52119471	    137.82852472	     89.18887600	     75.87821238	      3.29580303	     70.07394422	    121.29021356	    103.46563698
      6.43333330	    -38.34671396	     -1.18673407	     -3.79576998	      0.52115006	      0.52111857	      0.04750504	    111.35599295	    -18.34702042	     -2.08417781	    110.03559225	      1.92048338	     34.92036385	    -15.14173829	     -7.49999987	    117.27023489	    -19.55393621	      9.67905387	    108.38767922	      1.89172187	     31.40909886	    -11.03886310	     -7.49999987	    -21.28621971	      4.09107053	     12.49681774	     72.28648876	    -18.31157577	     75.04862872	    137.53105596	     89.07805663	     75.73601671	      3.41827515	     70.16573809	    121.39074581	    103.26608898
      6.45000000	    -38.91156553	     -1.40847420	     -4.33222343	      0.52182190	      0.53381268	      0.04752519	    109.63718594	    -17.59005974	     -2.92764996	    108.00805024	      1.88509610	     34.75705927	    -15.86036171	     -7.49999987	    116.08259389	    -20.18760680	      9.59139862	    106.99436342	      1.86740392	     32.39393592	    -10.60826093	     -7.49999987	    -20.13495097	      4.28880974	     13.53496937	     73.06807232	    -18.68771635	     76.17454166	    138.24266691	     90.01991371	     74.99264216	      4.06970214	     70.19824970	    121.11949613	    104.44289273
      6.46666670	    -39.22996674	     -1.30866651	     -4.58894871	      0.51806924	      0.55221084	      0.04907542	    107.69249011	    -17.08987310	     -3.48092210	    105.60515600	      1.84315768	     34.46181459	    -16.11710391	     -7.49999987	    114.20127126	    -20.68140799	      8.79994587	    105.04303473	      1.83334681	     32.66991143	    -10.56566381	     -7.49999987	    -19.53974792	      4.17420667	     14.14303444	     74.70188028	    -19.33514361	     78.01317206	    137.34242675	     88.52719589	     75.36545396	      4.40499362	     70.21494235	    119.86759538	    101.67502257
      6.48333330	    -39.15186133	     -1.17354154	     -4.81662234	      0.53367973	      0.56372246	      0.04477708	    105.29244578	    -16.76152162	     -3.98593292	    103.19138100	      1.80102936	     34.41286459	    -16.13751532	     -7.49999987	    111.67053124	    -21.06821864	      7.88283928	    102.99752905	      1.79764600	     32.86085517	    -10.73956707	     -7.49999987	    -19.15109199	      4.22699180	     14.08062159	     74.05660365	    -19.53900573	     77.60319603	    136.62191714	     88.16537808	     74.31592639	      4.68796281	     70.57594578	    120.12818457	    100.97424750
      6.50000000	    -39.05314148	     -1.17783822	     -5.08727383	      0.53944376	      0.57596212	      0.04230378	    102.78493186	    -16.41697910	     -4.63910530	    100.70762093	      1.75767957	     33.95506042	    -16.32911724	     -7.49999987	    109.10600864	    -21.50950455	      7.07414942	    100.94545044	      1.76183048	     33.24034989	    -10.31762392	     -7.49999987	    -18.53981624	      4.33064083	     14.40386353	     72.52641239	    -19.53266629	     80.03297857	    138.42381420	     87.66776139	     73.36804765	      5.49681347	     70.58299221	    119.45421423	    100.89734697
